<svg id="Layer_1" data-name="Layer 1" xmlns="http://www.w3.org/2000/svg" viewBox="0 0 686.72 249.73"><defs><style>.cls-1{fill:#fff;}.cls-2{fill:#4fe3a0;}.cls-3{fill:#f45241;}.cls-4{fill:#282881;}</style></defs><path d="M562.27,559.77v1.9a2.06,2.06,0,0,0,3.34,1.63,34.86,34.86,0,0,1,8.14-4.95A33.07,33.07,0,0,1,587,555.69q15.28,0,26,11.56t10.69,29.64q0,17.45-11,29.18t-26.2,11.73a32.6,32.6,0,0,1-12.56-2.4,35,35,0,0,1-8.2-4.94,2.06,2.06,0,0,0-3.35,1.62v30.21a2.07,2.07,0,0,1-2.07,2.07H544.89a2.07,2.07,0,0,1-2.07-2.07V559.77a2.07,2.07,0,0,1,2.07-2.07H560.2A2.07,2.07,0,0,1,562.27,559.77Zm20.6,14a20.41,20.41,0,0,0-15.36,6.32q-6.1,6.31-6.1,16.5,0,10.41,6.1,16.83a19.9,19.9,0,0,0,12.1,6.22,21.42,21.42,0,0,0,19.82-8,23.79,23.79,0,0,0,4.68-14.94q0-10-6-16.47A20,20,0,0,0,582.87,573.78Z" transform="translate(-196.77 -414.62)"/><path d="M692.21,557.7h15.45a2.07,2.07,0,0,1,2.07,2.07v74a2.07,2.07,0,0,1-2.07,2.07H692.21a2.07,2.07,0,0,1-2.07-2.07v-1.64a2.07,2.07,0,0,0-3.36-1.61,34.89,34.89,0,0,1-8.15,4.93,32.27,32.27,0,0,1-12.51,2.4Q651,637.8,640,626.07t-11-29.18q0-18.09,10.69-29.64t25.95-11.56a33,33,0,0,1,13.19,2.66,34.34,34.34,0,0,1,8,4.92,2.07,2.07,0,0,0,3.35-1.63v-1.87A2.07,2.07,0,0,1,692.21,557.7Zm-22.67,16.08a19.78,19.78,0,0,0-15.09,6.42q-6,6.43-6,16.47a23.92,23.92,0,0,0,4.67,15,21.31,21.31,0,0,0,19.75,8,19.76,19.76,0,0,0,12.06-6.21Q691,607,691,596.6q0-10.19-6.08-16.5A20.42,20.42,0,0,0,669.54,573.78Z" transform="translate(-196.77 -414.62)"/><path d="M796.56,574.63l-12.88,7.08a2.06,2.06,0,0,1-2.43-.33,26.31,26.31,0,0,0-8-5.59,27.43,27.43,0,0,0-10.53-1.87q-11,0-17.79,6.56t-6.79,16.8q0,10,6.54,16.27t17.18,6.31q12.13,0,19.31-7.64a2.06,2.06,0,0,1,2.68-.3l12.08,8.27a2.08,2.08,0,0,1,.42,3.06q-12.41,14.55-34,14.55-20.59,0-32.26-12.2a40.59,40.59,0,0,1,9.83-64.45,47.19,47.19,0,0,1,22.72-5.46,46.19,46.19,0,0,1,20.89,4.63,39.61,39.61,0,0,1,13.72,11.23A2.07,2.07,0,0,1,796.56,574.63Z" transform="translate(-196.77 -414.62)"/><path d="M811.15,527.56H826.6a2.06,2.06,0,0,1,2.07,2.07v54.86a2.07,2.07,0,0,0,3.61,1.38l24.63-27.48a2.05,2.05,0,0,1,1.54-.69h19a2.07,2.07,0,0,1,1.54,3.45l-29.27,32.57a2.06,2.06,0,0,0,0,2.79l33.16,35.81a2.07,2.07,0,0,1-1.52,3.47H862.74a2,2,0,0,1-1.52-.67l-29-31.42a2.07,2.07,0,0,0-3.59,1.4v28.62a2.07,2.07,0,0,1-2.07,2.07H811.15a2.07,2.07,0,0,1-2.07-2.07V529.63A2.07,2.07,0,0,1,811.15,527.56Z" transform="translate(-196.77 -414.62)"/><path d="M606.59,445.93h15.46a2.07,2.07,0,0,1,2.07,2.07v74a2.07,2.07,0,0,1-2.07,2.07H606.59a2.07,2.07,0,0,1-2.07-2.07v-1.64a2.07,2.07,0,0,0-3.35-1.62,34.61,34.61,0,0,1-8.15,4.94,32.27,32.27,0,0,1-12.51,2.4q-15.13,0-26.17-11.74t-11-29.17q0-18.09,10.68-29.64t25.95-11.56a33,33,0,0,1,13.19,2.66,34.48,34.48,0,0,1,8.06,4.91,2.06,2.06,0,0,0,3.34-1.62V448A2.07,2.07,0,0,1,606.59,445.93ZM583.93,462a19.82,19.82,0,0,0-15.1,6.42q-6,6.42-6,16.47t6.12,16.65A19.82,19.82,0,0,0,584,508.09a20.18,20.18,0,0,0,15.3-6.43q6.09-6.42,6.09-16.83,0-10.18-6.09-16.51A20.41,20.41,0,0,0,583.93,462Z" transform="translate(-196.77 -414.62)"/><path d="M656,417.86v32a2.06,2.06,0,0,0,3.34,1.63,35.07,35.07,0,0,1,8.14-4.95,33.1,33.1,0,0,1,13.21-2.66q15.28,0,26,11.56t10.69,29.64q0,17.44-11,29.17T680.14,526a32.63,32.63,0,0,1-12.56-2.4,35,35,0,0,1-8.2-4.94A2.06,2.06,0,0,0,656,520.3V522A2.07,2.07,0,0,1,654,524H638.65a2.07,2.07,0,0,1-2.07-2.07V417.86a2.06,2.06,0,0,1,2.07-2.07H654A2.07,2.07,0,0,1,656,417.86ZM676.63,462a20.43,20.43,0,0,0-15.36,6.31q-6.1,6.33-6.1,16.51,0,10.41,6.1,16.83a20.28,20.28,0,0,0,15.36,6.43,19.92,19.92,0,0,0,15.11-6.54q6.13-6.53,6.13-16.65t-6-16.47A20,20,0,0,0,676.63,462Z" transform="translate(-196.77 -414.62)"/><path d="M800.64,462.86l-12.88,7.08a2.07,2.07,0,0,1-2.44-.33,26.08,26.08,0,0,0-8-5.59,27.17,27.17,0,0,0-10.53-1.87q-11,0-17.78,6.56t-6.79,16.8q0,10,6.54,16.27t17.17,6.31q12.14,0,19.32-7.64a2,2,0,0,1,2.67-.3L800,508.42a2.07,2.07,0,0,1,.41,3.05Q788,526,766.39,526q-20.61,0-32.27-12.2A40.58,40.58,0,0,1,744,449.38a47.18,47.18,0,0,1,22.71-5.46,46,46,0,0,1,20.89,4.63,39.61,39.61,0,0,1,13.72,11.23A2.07,2.07,0,0,1,800.64,462.86Z" transform="translate(-196.77 -414.62)"/><polygon class="cls-1" points="80.18 20.56 0.06 136.98 80.18 182.52 80.18 20.56"/><path class="cls-2" d="M353.25,552.38a2.73,2.73,0,0,0,.88-3.92L275.69,435.18h0l-78.44,114a2.73,2.73,0,0,0,.9,3.92l77.54,44.07h0Zm-88.64,30.41-56.37-32a2.75,2.75,0,0,1-.9-3.93l56.37-81.89a2.73,2.73,0,0,1,5,1.54V580.42A2.73,2.73,0,0,1,264.61,582.79Z" transform="translate(-196.77 -414.62)"/><path class="cls-3" d="M509,446.27H405.4V553.49h0c0,7.65,5.06,15.3,15.17,21.14,20.23,11.68,53,11.68,73.25,0,10.12-5.84,15.17-13.49,15.17-21.14h0Z" transform="translate(-196.77 -414.62)"/><path class="cls-1" d="M457.2,470.93c-13.23,0-25.62-2.94-34.88-8.29-8.65-5-13.42-11.43-13.42-18.11s4.77-13.12,13.42-18.12c9.26-5.34,21.65-8.29,34.88-8.29s25.61,2.95,34.87,8.29c8.66,5,13.42,11.43,13.42,18.12s-4.76,13.11-13.42,18.11C482.81,468,470.43,470.93,457.2,470.93Z" transform="translate(-196.77 -414.62)"/><path class="cls-3" d="M457.2,421.62c12.62,0,24.39,2.78,33.12,7.82,7.42,4.29,11.67,9.78,11.67,15.09s-4.25,10.8-11.67,15.08c-8.73,5-20.5,7.82-33.12,7.82s-24.39-2.78-33.13-7.82c-7.41-4.28-11.67-9.78-11.67-15.08s4.26-10.8,11.67-15.09c8.74-5,20.5-7.82,33.13-7.82h0m0-7c-13.26,0-26.51,2.92-36.63,8.76-20.22,11.68-20.22,30.61,0,42.29,10.12,5.84,23.37,8.76,36.63,8.76s26.51-2.92,36.62-8.76c20.23-11.68,20.23-30.61,0-42.29-10.11-5.84-23.37-8.76-36.62-8.76Z" transform="translate(-196.77 -414.62)"/><polygon class="cls-1" points="188.23 159.62 268.33 113.36 188.25 67.06 108.08 113.38 188.23 159.62"/><path class="cls-4" d="M463.71,525.19l-77.33-44.71a2.76,2.76,0,0,0-2.74,0L306.23,525.2a2.73,2.73,0,0,0-1.37,2.36l.08,89.29a2.7,2.7,0,0,0,1.37,2.36l77.34,44.72a2.74,2.74,0,0,0,2.74,0l77.33-44.77a2.74,2.74,0,0,0,1.36-2.36V527.55A2.73,2.73,0,0,0,463.71,525.19Zm-77.33-36.63L447,523.62a2.73,2.73,0,0,1,0,4.73l-60.65,35a2.72,2.72,0,0,1-2.73,0l-60.69-35a2.73,2.73,0,0,1,0-4.73l60.7-35.07A2.74,2.74,0,0,1,386.38,488.56Z" transform="translate(-196.77 -414.62)"/></svg>