<!-- icon666.com - MILLIONS vector ICONS FREE --><svg id="Layer_1" viewBox="0 0 512 512" xmlns="http://www.w3.org/2000/svg" data-name="Layer 1"><path d="m256 0c141.385 0 256 114.615 256 256s-114.615 256-256 256-256-114.615-256-256 114.615-256 256-256zm-122.37 148.428c-14.186 20.549-19.859 47.269-3.9 76.43 37.455 68.466 88.951 119.953 157.409 157.408 12.339 6.758 24.249 9.638 35.432 9.638 15.211 0 29.079-5.329 40.9-13.483a474.755 474.755 0 0 0 -48.72-51.873q-6.375 2.524-12.862 4.721c-25.342 11.125-64.843-24.4-80.8-40.362s-51.477-55.459-40.357-80.8q2.163-6.414 4.671-12.729a466.323 466.323 0 0 0 -51.773-48.948zm69.383 12.866-41.506-39.818a108.634 108.634 0 0 0 -9.791 7.293 494.481 494.481 0 0 1 45.768 42.439q2.646-4.986 5.5-9.864a.314.314 0 0 0 .028-.05zm147.687 147.69c-.018.014-.031.018-.049.032-3.216 1.891-6.49 3.71-9.792 5.464a501.654 501.654 0 0 1 42.3 45.882 109.943 109.943 0 0 0 7.364-9.864zm-172.816 25.138c27.872 27.878 59.423 51.278 96.456 71.537 15.61 8.541 31.891 12.841 48.16 12.841a94.179 94.179 0 0 0 30.313-5.061c23.315-7.878 44.611-25.029 59.972-48.272 10.585-16.027 3.864-25.954.48-29.478l-43.713-45.559a26.258 26.258 0 0 0 -32.395-4.109 235.233 235.233 0 0 1 -44.421 20.195 12.953 12.953 0 0 0 -1.369.544c-1.6.186-7.66-.889-18.821-7.909-10.09-6.345-21.673-15.864-32.607-26.8s-20.449-22.508-26.8-32.608c-7.016-11.156-8.086-17.21-7.909-18.816a13.042 13.042 0 0 0 .544-1.369 235.249 235.249 0 0 1 20.2-44.421 26.261 26.261 0 0 0 -4.113-32.4l-45.551-43.704c-3.524-3.379-13.451-10.1-29.474.48-23.251 15.361-40.4 36.658-48.28 59.968-8.785 25.981-6.095 53.115 7.782 78.475 20.267 37.034 43.662 68.589 71.546 96.466z" fill="#fc0005" fill-rule="evenodd"></path></svg>